<svg width="1440" height="278" viewBox="0 0 1440 278" fill="none" xmlns="http://www.w3.org/2000/svg">
<path fill-rule="evenodd" clip-rule="evenodd" d="M822.702 195.875C819.546 147.677 805.19 98.4408 828.46 56.5939C858.35 2.83859 903.237 -62.4113 962.742 -55.9699C1022.23 -49.5305 1033.38 35.2435 1071.64 82.9187C1103.43 122.52 1162.9 144.386 1164.89 195.875C1166.9 247.924 1119.07 284.611 1080.74 318.27C1046.52 348.327 1007.59 373.55 962.742 373.391C918.034 373.233 873.854 353.327 845.541 317.438C819.339 284.223 825.507 238.693 822.702 195.875Z" stroke="#011F4A" stroke-width="4"/>
<path fill-rule="evenodd" clip-rule="evenodd" d="M-64.9669 125.616C-67.6619 71.8586 -44.6162 17.86 -4.6525 -16.683C32.7028 -48.9714 90.7557 -70.4542 133.094 -45.5796C173.258 -21.9823 148.584 44.7353 170.963 86.4952C182.016 107.119 212.992 105.467 224.838 125.616C254.953 176.842 331.166 245.587 288.103 285.749C244.123 326.768 191.988 217.9 133.094 211.182C88.0129 206.039 50.7557 271.979 8.91227 253.902C-37.2822 233.946 -62.3773 177.273 -64.9669 125.616Z" stroke="#011F4A" stroke-width="4"/>
<path fill-rule="evenodd" clip-rule="evenodd" d="M530.01 210.969C530.407 144.372 409.378 82.0872 455.012 35.1987C500.727 -11.7731 569.51 79.2716 624.613 113.765C644.397 126.15 649.247 151.615 666.481 167.577C686.043 185.695 717.252 186.957 729.56 210.969C752.386 255.5 782.47 307.265 761.37 352.701C737.462 404.188 679.396 430.54 624.613 436.972C563.374 444.163 477.435 447.517 452.907 388.921C426.949 326.908 529.608 278.563 530.01 210.969Z" stroke="#011F4A" stroke-width="4"/>
<path fill-rule="evenodd" clip-rule="evenodd" d="M1011.11 358.789C1007.24 298.233 970.144 202.102 1026.12 184.343C1093.13 163.083 1124.56 294.561 1194.39 300.643C1251.79 305.643 1285.08 184.631 1336.58 211.384C1381.61 234.781 1307.34 306.577 1306.31 358.789C1305.34 408.616 1356.35 458.036 1330.92 500.33C1304.68 543.974 1243.96 542.997 1194.39 544.954C1142.17 547.015 1084.38 549.455 1047.05 511.536C1009.51 473.407 1014.59 413.152 1011.11 358.789Z" stroke="#011F4A" stroke-width="4"/>
<path fill-rule="evenodd" clip-rule="evenodd" d="M1256.62 149.34C1239.22 103.468 1320.84 78.4725 1366.24 63.4252C1394.55 54.0389 1420.67 77.3666 1449.37 85.4488C1465.96 90.1224 1485.36 87.0373 1496.88 100.229C1508.09 113.052 1504.9 132.067 1505.18 149.34C1505.46 167.085 1503.26 183.042 1498.47 200.084C1483.85 252.075 1501.17 355.87 1449.37 347.855C1394.55 339.375 1452.31 227.303 1413.05 186.87C1373.63 146.273 1276.92 202.887 1256.62 149.34Z" stroke="#011F4A" stroke-width="4"/>
<path fill-rule="evenodd" clip-rule="evenodd" d="M651.595 29.4443C654.646 6.66929 677.067 -5.23719 687.504 -25.5373C708.016 -65.4305 697.607 -136.119 740.658 -143.773C781.305 -151 783.579 -74.8938 815.875 -48.3603C857.955 -13.7879 947.841 -26.0142 951.492 29.4443C955.061 83.6357 875.292 97.6076 826.871 118.623C799.313 130.583 770.388 124.086 740.658 120.949C715.639 118.309 688.247 120.446 670.404 102.114C652.524 83.7432 648.136 55.2662 651.595 29.4443Z" stroke="#011F4A" stroke-width="4"/>
<path fill-rule="evenodd" clip-rule="evenodd" d="M1043.13 27.4652C1037.56 -1.63117 1020.8 -39.2666 1042.93 -58.135C1065.39 -77.2989 1098.12 -33.1346 1125.66 -42.9252C1190.34 -65.9203 1234.51 -180.728 1295.03 -147.764C1348.4 -118.692 1256.89 -34.9034 1254.89 27.4652C1253.04 85.2218 1335.11 167.748 1284.17 191.457C1224.88 219.053 1184.22 116.833 1125.66 87.6146C1108.36 78.9817 1086 96.1892 1070.3 84.7441C1052.83 72.0114 1047.29 49.1523 1043.13 27.4652Z" stroke="#011F4A" stroke-width="4"/>
<path fill-rule="evenodd" clip-rule="evenodd" d="M848.836 -21.2187C844.032 -68.0197 805.548 -134.311 845.481 -156.99C889.49 -181.985 926.745 -95.2105 976.956 -93.9839C1024.38 -92.8254 1061.88 -176.274 1102.36 -150.716C1139.55 -127.228 1107.07 -63.5342 1092.18 -21.2187C1082.54 6.18911 1052.17 15.7079 1035.53 39.2662C1011.97 72.6183 1015.36 130.429 976.956 141.904C937.62 153.66 896.479 121.372 870.682 88.5284C846.999 58.375 852.799 17.39 848.836 -21.2187Z" stroke="#011F4A" stroke-width="4"/>
<path fill-rule="evenodd" clip-rule="evenodd" d="M204.939 -28.4414C199.366 -81.815 194.2 -145.636 233.407 -180.514C271.898 -214.755 328.857 -183.046 379.483 -183.715C431.399 -184.4 511.757 -235.291 529.314 -184.423C550.181 -123.967 462.332 -85.0031 433.076 -28.4414C425.556 -13.9031 428.723 2.45573 424.431 18.3518C410.132 71.3126 427.737 147.632 379.483 170.057C335.69 190.409 294.43 130.642 262.047 93.8152C231.493 59.0675 209.828 18.3912 204.939 -28.4414Z" stroke="#011F4A" stroke-width="4"/>
<path fill-rule="evenodd" clip-rule="evenodd" d="M-275.709 216.876C-263.099 165.765 -189.645 168.145 -156.139 128.428C-116.968 81.9967 -128.081 -9.32377 -70.7919 -26.021C-13.1014 -42.835 65.4325 -0.664565 81.3428 59.213C97.4929 119.993 -2.79893 153.936 -6.25069 216.876C-9.26541 271.848 80.2855 304.856 64.9798 357.582C49.3104 411.561 -16.4231 437.558 -70.7919 439.213C-126.33 440.902 -176.399 407.733 -214.776 366.093C-252.197 325.492 -289.13 271.273 -275.709 216.876Z" stroke="#011F4A" stroke-width="4"/>
<path fill-rule="evenodd" clip-rule="evenodd" d="M1445.9 231.38C1426.42 179.253 1383.12 89.5238 1433.81 70.5385C1494.55 47.7856 1526.57 160.118 1588.85 177.834C1620.81 186.926 1645.68 129.053 1677.17 139.759C1714.12 152.319 1760.6 193.845 1746.37 231.38C1730.5 273.237 1655.49 237.098 1627.31 271.274C1593.37 312.419 1639.11 407.741 1588.85 422.366C1544.01 435.414 1548.98 340.537 1520.41 302.379C1498.91 273.651 1458.56 265.294 1445.9 231.38Z" stroke="#011F4A" stroke-width="4"/>
</svg>
