<svg width="42" height="42" viewBox="0 0 42 42" fill="none" xmlns="http://www.w3.org/2000/svg">
<path d="M36.2965 30.1314L36.069 29.8479C34.2683 27.5712 32.7633 26.3864 31.4718 26.2307C30.3553 26.0784 29.2755 26.8502 28.1275 27.6447L26.9008 28.4112C26.7538 28.4847 26.6085 28.5442 26.472 28.5844C25.7545 28.7874 23.9433 28.9064 22.9178 27.9684C21.7243 26.8764 19.8728 24.8779 18.4325 23.1314C17.057 21.3237 15.545 19.0697 14.7558 17.6504C14.089 16.4482 14.6473 14.7664 15.02 14.1434C15.0935 14.0209 15.1898 13.9002 15.2965 13.7812L16.378 12.7819C16.3938 12.7662 16.4008 12.7469 16.4148 12.7329C16.4253 12.7224 16.4428 12.7259 16.455 12.7172C17.4315 11.8929 18.4413 11.0442 18.5795 9.95391C18.7423 8.67291 17.946 6.94041 16.1418 4.66541L15.9213 4.38191C14.8048 2.95041 13.116 0.785662 10.6905 1.14266C9.73679 1.28441 8.88454 1.60991 8.00604 2.16116C7.99729 2.16641 7.99204 2.17691 7.98504 2.18216C7.97804 2.18741 7.96929 2.18741 7.96229 2.19266L6.73904 3.09916C6.72679 3.10616 6.71979 3.12191 6.70754 3.13241C6.69879 3.14116 6.68479 3.14291 6.67429 3.15166C6.53254 3.27066 6.39079 3.39316 6.25079 3.51916C5.01004 4.62516 2.32379 7.83641 4.15604 13.7759C5.33904 17.6119 7.77854 22.0884 11.2278 26.7469L11.1945 26.7749L13.0968 29.1444L13.1125 29.1322C16.8523 33.5562 20.6585 36.9757 24.1463 39.0459C26.4738 40.4284 28.5073 40.8852 30.1803 40.8852C32.3818 40.8852 33.9585 40.0942 34.7495 39.5797L35.2465 39.2472C35.3025 39.2087 35.3428 39.1544 35.383 39.1054L36.4663 38.2899C36.4785 38.2794 36.4855 38.2654 36.4978 38.2549C36.503 38.2497 36.5118 38.2514 36.5188 38.2462C37.2888 37.5427 37.8225 36.8059 38.1935 35.9327C39.1543 33.6944 37.434 31.5507 36.2965 30.1314ZM36.9073 35.3832C36.6185 36.0622 36.1968 36.6397 35.5878 37.1997L33.976 38.4124C32.5165 39.3609 29.3963 40.5334 24.8638 37.8419C21.376 35.7717 17.5365 32.2717 13.7583 27.7199L12.7363 26.4284C9.17854 21.7104 6.67604 17.1919 5.49479 13.3629C3.96004 8.38416 5.89379 5.71366 7.18879 4.56041C7.32004 4.44141 7.45129 4.33116 7.58079 4.22091L7.58604 4.21566L8.76029 3.34591C9.47429 2.89441 10.1358 2.64241 10.897 2.52691C12.5228 2.28191 13.8458 3.99691 14.817 5.24291L15.0445 5.53166C17.0605 8.07441 17.2548 9.28366 17.1918 9.77716C17.1218 10.3249 16.2888 11.0267 15.5538 11.6444L15.4505 11.7319C15.447 11.7354 15.4453 11.7407 15.4418 11.7442C15.4365 11.7477 15.4313 11.7494 15.426 11.7529L14.3078 12.7872C14.3008 12.7942 14.2973 12.8029 14.2903 12.8117C14.2833 12.8204 14.2693 12.8239 14.2623 12.8327C14.089 13.0269 13.9403 13.2212 13.8195 13.4224C13.1913 14.4742 12.598 16.6477 13.5343 18.3294C14.3515 19.7994 15.9073 22.1217 17.337 23.9977C18.8315 25.8107 20.7373 27.8687 21.9728 28.9974C22.8985 29.8427 24.1865 30.1262 25.3013 30.1262C25.898 30.1262 26.4458 30.0439 26.8605 29.9267C27.0793 29.8637 27.305 29.7727 27.5378 29.6589C27.5518 29.6519 27.5588 29.6397 27.5728 29.6309C27.5798 29.6274 27.5903 29.6292 27.5973 29.6239L28.8958 28.8119C28.9378 28.7839 28.9658 28.7472 29.0008 28.7122L29.0165 28.7297C29.8163 28.1749 30.728 27.5239 31.2985 27.6184C31.8043 27.6797 32.9523 28.1662 34.9718 30.7159L35.2045 31.0082C36.188 32.2349 37.5355 33.9149 36.9073 35.3832Z" fill="white"/>
</svg>
