<svg width="42" height="42" viewBox="0 0 42 42" fill="none" xmlns="http://www.w3.org/2000/svg">
<path d="M31.4829 2.793C29.7176 2.60573 27.9434 2.5146 26.1681 2.52C20.2829 2.52 16.6254 6.2685 16.6254 12.3025V16.3993H11.6816C11.4496 16.3993 11.227 16.4914 11.0629 16.6555C10.8988 16.8196 10.8066 17.0422 10.8066 17.2743V24.0118C10.8066 24.2438 10.8988 24.4664 11.0629 24.6305C11.227 24.7946 11.4496 24.8868 11.6816 24.8868H16.6254V38.3968C16.6254 38.6288 16.7176 38.8514 16.8817 39.0155C17.0458 39.1796 17.2683 39.2718 17.5004 39.2718H24.4619C24.694 39.2718 24.9165 39.1796 25.0806 39.0155C25.2447 38.8514 25.3369 38.6288 25.3369 38.3968V24.8868H30.2649C30.4773 24.8869 30.6825 24.8097 30.8423 24.6696C31.002 24.5295 31.1053 24.3361 31.1329 24.1255L32.0026 17.388C32.0188 17.2645 32.0085 17.139 31.9723 17.0198C31.936 16.9007 31.8748 16.7906 31.7926 16.697C31.7105 16.6034 31.6093 16.5284 31.4958 16.4771C31.3823 16.4257 31.2592 16.3992 31.1346 16.3993H25.3369V12.971C25.3369 11.2735 25.6781 10.5648 27.8009 10.5648H31.3691C31.6012 10.5648 31.8238 10.4726 31.9879 10.3085C32.152 10.1444 32.2441 9.92182 32.2441 9.68975V3.661C32.2442 3.44857 32.1671 3.24335 32.027 3.08363C31.8869 2.92392 31.6935 2.82062 31.4829 2.793ZM30.4941 8.813L27.7991 8.81475C24.0244 8.81475 23.5869 11.1878 23.5869 12.971V17.276C23.5869 17.5078 23.6788 17.7301 23.8426 17.8941C24.0063 18.0581 24.2284 18.1505 24.4601 18.151H30.1406L29.4949 23.1385H24.4619C24.2298 23.1385 24.0073 23.2307 23.8432 23.3948C23.6791 23.5589 23.5869 23.7814 23.5869 24.0135V37.52H18.3754V24.0135C18.3754 23.7814 18.2832 23.5589 18.1191 23.3948C17.955 23.2307 17.7325 23.1385 17.5004 23.1385H12.5584V18.151H17.5004C17.7325 18.151 17.955 18.0588 18.1191 17.8947C18.2832 17.7306 18.3754 17.5081 18.3754 17.276V12.3025C18.3754 7.273 21.2891 4.27 26.1681 4.27C27.9339 4.27 29.5281 4.36625 30.4941 4.45025V8.813Z" fill="white"/>
</svg>
