<svg width="48" height="48" viewBox="0 0 48 48" fill="none" xmlns="http://www.w3.org/2000/svg">
<path d="M44.5311 15.4893C44.1519 15.1456 43.6931 14.925 43.2063 14.8521C42.7194 14.7792 42.2237 14.857 41.7748 15.0768L32.3061 19.6968C32.2644 19.7219 32.2185 19.7375 32.1712 19.7427C32.1239 19.7479 32.0761 19.7427 32.0307 19.7273C31.9853 19.712 31.9431 19.6867 31.9067 19.6532C31.8703 19.6196 31.8403 19.5783 31.8186 19.5318L26.2873 8.60057C26.063 8.1487 25.7323 7.77161 25.3298 7.50889C24.9273 7.24618 24.4679 7.10754 23.9998 7.10754C23.5318 7.10754 23.0724 7.24618 22.6699 7.50889C22.2674 7.77161 21.9366 8.1487 21.7123 8.60057L16.1811 19.5318C16.1594 19.5783 16.1294 19.6196 16.093 19.6532C16.0566 19.6867 16.0144 19.712 15.969 19.7273C15.9235 19.7427 15.8758 19.7479 15.8285 19.7427C15.7812 19.7375 15.7353 19.7219 15.6936 19.6968L6.22483 15.0768C5.7775 14.8537 5.28222 14.773 4.79531 14.8441C4.30839 14.9152 3.84937 15.1351 3.47043 15.4789C3.09149 15.8227 2.80785 16.2765 2.65173 16.7888C2.49562 17.3011 2.47331 17.8513 2.58733 18.3768L7.36858 40.7137C7.44956 41.0912 7.59932 41.4467 7.8088 41.7586C8.01829 42.0706 8.28314 42.3326 8.58733 42.5287C8.98807 42.7985 9.44876 42.9412 9.91858 42.9412C10.159 42.9388 10.3983 42.9041 10.6311 42.8381C19.3723 40.178 28.6052 40.1709 37.3498 42.8174C37.6909 42.9258 38.0485 42.9568 38.4008 42.9088C38.7531 42.8607 39.093 42.7345 39.3997 42.5379C39.7064 42.3412 39.9737 42.0782 40.1854 41.7646C40.397 41.4511 40.5486 41.0936 40.6311 40.7137L45.3936 18.3768C45.5126 17.8551 45.4947 17.3069 45.342 16.7958C45.1894 16.2848 44.9082 15.8318 44.5311 15.4893ZM43.2186 17.7993L38.4373 40.1362C38.4117 40.2447 38.3519 40.3397 38.2686 40.4043C38.1755 40.4541 38.07 40.4686 37.9686 40.4456C28.8273 37.6679 19.1724 37.6679 10.0311 40.4456C9.98181 40.4609 9.93019 40.465 9.87942 40.4576C9.82864 40.4502 9.77979 40.4314 9.73587 40.4024C9.69195 40.3734 9.65389 40.3349 9.62404 40.2891C9.5942 40.2433 9.5732 40.1913 9.56233 40.1362L4.78108 17.7993C4.77018 17.7377 4.7716 17.6741 4.78525 17.6131C4.7989 17.5521 4.82445 17.4951 4.86013 17.4461C4.8958 17.397 4.94075 17.3571 4.99186 17.329C5.04296 17.301 5.099 17.2855 5.15608 17.2837L5.30608 17.3249L14.7936 21.9656C15.3919 22.2619 16.0698 22.2991 16.692 22.0697C17.3142 21.8403 17.8348 21.3612 18.1498 20.7281L23.6811 9.79682C23.7107 9.73166 23.7561 9.67686 23.8124 9.63855C23.8687 9.60025 23.9336 9.57995 23.9998 9.57995C24.066 9.57995 24.1309 9.60025 24.1872 9.63855C24.2435 9.67686 24.289 9.73166 24.3186 9.79682L29.8498 20.7281C30.1649 21.3612 30.6855 21.8403 31.3077 22.0697C31.9298 22.2991 32.6078 22.2619 33.2061 21.9656L42.6936 17.3249C42.7579 17.2936 42.8289 17.2828 42.8985 17.2937C42.9682 17.3047 43.0336 17.3369 43.0873 17.3868C43.1421 17.4352 43.1835 17.4994 43.2067 17.5724C43.2299 17.6453 43.234 17.7239 43.2186 17.7993ZM31.1248 33.4743C31.0929 33.7789 30.9609 34.0601 30.7538 34.2652C30.5466 34.4702 30.2785 34.5851 29.9998 34.5881H29.8873C25.9722 34.155 22.0275 34.155 18.1123 34.5881C17.8166 34.6228 17.5204 34.5273 17.2885 34.3225C17.0566 34.1176 16.9079 33.8201 16.8748 33.4949C16.8485 33.1675 16.9397 32.8418 17.1289 32.5874C17.3181 32.333 17.5904 32.1701 17.8873 32.1337C21.9509 31.6593 26.0487 31.6593 30.1123 32.1337C30.4058 32.1701 30.6751 32.33 30.8638 32.5799C31.0525 32.8298 31.1461 33.1503 31.1248 33.4743Z" fill="#2B7FFF"/>
</svg>
