<svg width="48" height="49" viewBox="0 0 48 49" fill="none" xmlns="http://www.w3.org/2000/svg">
<g clip-path="url(#clip0_28_92)">
<path d="M13.1079 18.5728H-0.18439C-0.592759 18.5728 -0.922852 18.8895 -0.922852 19.2813V23.5323C-0.922852 23.9241 -0.592759 24.2408 -0.18439 24.2408H0.554072V40.5363C0.554072 40.9281 0.884164 41.2448 1.29253 41.2448H11.631C12.0394 41.2448 12.3695 40.9281 12.3695 40.5363V37.7023V27.0748V24.2408H13.1079C13.5163 24.2408 13.8464 23.9241 13.8464 23.5323V19.2813C13.8464 18.8895 13.5163 18.5728 13.1079 18.5728ZM4.98484 32.0343V30.6173H9.41561V29.2003H4.98484V27.7833H10.8925V36.9938H4.98484V33.4513H6.46176V32.0343H4.98484ZM10.8925 26.3663H4.24638C3.83801 26.3663 3.50792 26.683 3.50792 27.0748V37.7023C3.50792 38.0941 3.83801 38.4108 4.24638 38.4108H10.8925V39.8278H2.03099V24.2408H10.8925V26.3663ZM12.3695 22.8238H11.631H1.29253H0.554072V19.9898H12.3695V22.8238Z" fill="#2B7FFF"/>
<path d="M22.8926 18.7056V13.5258C22.8926 13.1224 22.5625 12.7963 22.1541 12.7963H21.4157V9.14908H22.8926V7.69019H14.7695V9.14908H19.9388V12.7963H19.2003C18.7919 12.7963 18.4618 13.1224 18.4618 13.5258V18.7056C16.7789 19.0448 15.508 20.5175 15.508 22.2792V23.7381V37.5976V40.5154C15.508 40.9188 15.8381 41.2448 16.2465 41.2448H25.108C25.5164 41.2448 25.8465 40.9188 25.8465 40.5154V37.5976V23.7381V22.2792C25.8465 20.5183 24.5756 19.0448 22.8926 18.7056ZM19.9388 14.2552H21.4157V18.6319H19.9388V14.2552ZM19.2003 20.0908H22.1541C23.3756 20.0908 24.3695 21.0727 24.3695 22.2792V23.0086H16.9849V22.2792C16.9849 21.0727 17.9789 20.0908 19.2003 20.0908ZM24.3695 36.8682H16.9849V35.4093H19.9388V33.9504H16.9849V24.4675H24.3695V36.8682ZM16.9849 39.7859V38.327H24.3695V39.7859H16.9849Z" fill="#2B7FFF"/>
<path d="M41.7691 17.6659H29.3075C28.9247 17.6659 28.6152 17.9853 28.6152 18.3804V40.5303C28.6152 40.9255 28.9247 41.2448 29.3075 41.2448H41.7691C42.1519 41.2448 42.4614 40.9255 42.4614 40.5303V18.3804C42.4614 17.9853 42.1519 17.6659 41.7691 17.6659ZM41.0768 39.8158H29.9998V19.0949H41.0768V39.8158Z" fill="#2B7FFF"/>
<path d="M10.1538 32.176H8.30762V33.0829H10.1538V32.176Z" fill="#2B7FFF"/>
<path d="M23.0776 33.9897H21.2314V35.8035H23.0776V33.9897Z" fill="#2B7FFF"/>
<path d="M20.7698 32.1761C22.5516 32.1761 24.0006 30.7525 24.0006 29.002C24.0006 27.2515 22.5516 25.8279 20.7698 25.8279C18.9881 25.8279 17.5391 27.2515 17.5391 29.002C17.5391 30.7525 18.9881 32.1761 20.7698 32.1761ZM20.7698 27.4149C21.6607 27.4149 22.3852 28.1267 22.3852 29.002C22.3852 29.8772 21.6607 30.589 20.7698 30.589C19.8789 30.589 19.1544 29.8772 19.1544 29.002C19.1544 28.1267 19.8789 27.4149 20.7698 27.4149Z" fill="#2B7FFF"/>
<path d="M33.8078 24.921H37.2694C38.6055 24.921 39.6925 23.904 39.6925 22.6538C39.6925 21.4036 38.6055 20.3866 37.2694 20.3866H33.8078C32.4717 20.3866 31.3848 21.4036 31.3848 22.6538C31.3848 23.904 32.4717 24.921 33.8078 24.921ZM38.3078 22.6538C38.3078 23.1895 37.8419 23.6255 37.2694 23.6255H36.2309V21.6821H37.2694C37.8419 21.6821 38.3078 22.1181 38.3078 22.6538ZM33.8078 21.6821H34.8463V23.6255H33.8078C33.2353 23.6255 32.7694 23.1895 32.7694 22.6538C32.7694 22.1181 33.2353 21.6821 33.8078 21.6821Z" fill="#2B7FFF"/>
<path d="M33.8078 32.176H37.2694C38.6055 32.176 39.6925 30.9556 39.6925 29.4554C39.6925 27.9551 38.6055 26.7347 37.2694 26.7347H33.8078C32.4717 26.7347 31.3848 27.9551 31.3848 29.4554C31.3848 30.9556 32.4717 32.176 33.8078 32.176ZM38.3078 29.4554C38.3078 30.0982 37.8419 30.6214 37.2694 30.6214H36.2309V28.2894H37.2694C37.8419 28.2894 38.3078 28.8125 38.3078 29.4554ZM33.8078 28.2894H34.8463V30.6214H33.8078C33.2353 30.6214 32.7694 30.0982 32.7694 29.4554C32.7694 28.8125 33.2353 28.2894 33.8078 28.2894Z" fill="#2B7FFF"/>
<path d="M33.8078 38.5242H37.2694C38.6055 38.5242 39.6925 37.3038 39.6925 35.8035C39.6925 34.3033 38.6055 33.0829 37.2694 33.0829H33.8078C32.4717 33.0829 31.3848 34.3033 31.3848 35.8035C31.3848 37.3038 32.4717 38.5242 33.8078 38.5242ZM38.3078 35.8035C38.3078 36.4464 37.8419 36.9695 37.2694 36.9695H36.2309V34.6375H37.2694C37.8419 34.6375 38.3078 35.1607 38.3078 35.8035ZM33.8078 34.6375H34.8463V36.9695H33.8078C33.2353 36.9695 32.7694 36.4464 32.7694 35.8035C32.7694 35.1607 33.2353 34.6375 33.8078 34.6375Z" fill="#2B7FFF"/>
</g>
<defs>
<clipPath id="clip0_28_92">
<rect width="48" height="48" fill="white" transform="translate(0 0.5)"/>
</clipPath>
</defs>
</svg>
