<svg width="48" height="48" viewBox="0 0 48 48" fill="none" xmlns="http://www.w3.org/2000/svg">
<path d="M24.0917 2.09958C22.5167 2.09958 21.0457 2.81677 19.7919 3.99117C18.5383 5.16586 17.465 6.8018 16.5704 8.78339C16.3829 9.19852 16.2038 9.62996 16.0326 10.075C15.571 10.0017 15.1074 9.9415 14.6423 9.89442C14.1014 9.84052 13.5736 9.80705 13.0608 9.79505C11.5214 9.75849 10.1145 9.91458 8.88138 10.2884C7.23738 10.7868 5.88082 11.7024 5.09332 13.0662C4.30582 14.4302 4.19144 16.0628 4.58173 17.7359C4.97219 19.4088 5.85223 21.1562 7.12113 22.9219C7.38738 23.2922 7.67182 23.6637 7.97201 24.035C7.67833 24.3976 7.39496 24.7683 7.12226 25.1469C5.85326 26.9125 4.97323 28.6599 4.58285 30.333C4.19248 32.006 4.30694 33.6386 5.09444 35.0024C5.88194 36.3664 7.23851 37.2819 8.88251 37.7802C10.5266 38.2787 12.48 38.3902 14.6434 38.1741C15.097 38.1287 15.5603 38.0682 16.0317 37.9939C16.199 38.4302 16.3786 38.8617 16.5704 39.2879C17.465 41.2697 18.5382 42.9054 19.7919 44.08C21.0456 45.2545 22.5168 45.9719 24.0917 45.9719C25.6665 45.9719 27.1376 45.2545 28.3913 44.08C29.6449 42.9053 30.7182 41.2696 31.6128 39.2879C31.8046 38.8618 31.9842 38.4304 32.1515 37.9941C32.6223 38.0682 33.0853 38.1288 33.5385 38.1741C35.702 38.3901 37.6555 38.2786 39.2994 37.7802C40.9436 37.2818 42.3002 36.3662 43.0877 35.0024C43.8752 33.6383 43.9895 32.0059 43.5993 30.333C43.2088 28.66 42.3287 26.9126 41.0598 25.1469C40.787 24.7684 40.5036 24.3976 40.21 24.035C40.5041 23.6722 40.7879 23.301 41.0609 22.922C42.3298 21.1563 43.2098 19.4089 43.6002 17.736C43.9906 16.0629 43.8761 14.4303 43.0886 13.0663C42.3011 11.7025 40.9445 10.7869 39.3005 10.2885C38.0675 9.91467 36.6605 9.75858 35.1213 9.79505C34.6082 9.80705 34.0803 9.84052 33.5394 9.89442C33.0857 9.9398 32.6219 10.0006 32.1503 10.0749C31.9832 9.63944 31.8038 9.20877 31.6125 8.78339C30.7178 6.80152 29.6447 5.16558 28.3909 3.99108C27.1372 2.81658 25.6661 2.09949 24.0913 2.09949L24.0917 2.09958ZM24.0917 3.85149C25.1421 3.85149 26.1722 4.31302 27.1935 5.26992C28.2147 6.22664 29.1901 7.67489 30.016 9.50433C30.1503 9.80282 30.278 10.1042 30.3991 10.4084C28.3912 10.8548 26.2647 11.5397 24.0911 12.4549C21.918 11.5399 19.7917 10.8552 17.7843 10.4087C17.9082 10.0984 18.0355 9.79599 18.1673 9.50424C18.9933 7.67471 19.9686 6.22646 20.9899 5.26955C22.0113 4.31283 23.0412 3.8513 24.0918 3.8513L24.0917 3.85149ZM12.5051 11.5443C12.6742 11.5426 12.8461 11.5438 13.0205 11.5477C13.4855 11.558 13.969 11.588 14.4683 11.638C14.7876 11.6699 15.114 11.7106 15.4456 11.7587C14.8281 13.7206 14.3581 15.9045 14.0635 18.2444C12.184 19.6694 10.5274 21.1688 9.13694 22.6846C8.93344 22.4272 8.73567 22.1654 8.54379 21.8992C7.37238 20.2693 6.60598 18.7005 6.28788 17.3375C5.96988 15.9746 6.08538 14.8519 6.61057 13.9422C7.13576 13.0324 8.05057 12.3712 9.38969 11.9652C10.2686 11.6986 11.3209 11.555 12.505 11.5442L12.5051 11.5443ZM35.6771 11.5443C36.8612 11.5551 37.9135 11.6987 38.7924 11.9653C40.1317 12.3712 41.0462 13.0324 41.5714 13.9422C42.0966 14.8519 42.2122 15.9747 41.8942 17.3375C41.5764 18.7004 40.8095 20.2693 39.6383 21.8992C39.4465 22.1654 39.2487 22.4273 39.0453 22.6848C37.655 21.1692 35.9989 19.6701 34.12 18.2453C33.8256 15.9051 33.355 13.7209 32.7376 11.7587C33.0688 11.7106 33.3948 11.6697 33.7138 11.638C34.1951 11.5892 34.6781 11.5591 35.1617 11.5476C35.3334 11.5437 35.5053 11.5426 35.6771 11.5441V11.5443ZM30.9971 12.0731C31.463 13.5204 31.8488 15.1173 32.1367 16.8262C31.2066 16.1979 30.2546 15.6027 29.2824 15.0417C28.311 14.4805 27.3201 13.9539 26.3115 13.4626C27.9352 12.8575 29.5109 12.3932 30.9971 12.0733V12.0731ZM17.1861 12.0734C18.6721 12.3934 20.2475 12.8577 21.8708 13.4627C20.8622 13.954 19.8713 14.4806 18.8999 15.0417C17.9282 15.6025 16.9765 16.1973 16.0467 16.8252C16.3345 15.1168 16.7202 13.5203 17.1861 12.0734ZM24.0911 14.3665C25.5168 14.9954 26.9639 15.7262 28.4064 16.5591C29.8495 17.3924 31.2067 18.2804 32.4644 19.201C32.6328 20.7504 32.7233 22.3695 32.7233 24.0357C32.7233 25.7009 32.633 27.3194 32.4648 28.8681C31.2071 29.7885 29.8501 30.6764 28.4074 31.5094C26.9646 32.3424 25.5171 33.0735 24.0912 33.7024C22.6651 33.0735 21.2176 32.3424 19.7748 31.5094C18.3324 30.6766 16.9759 29.7891 15.7188 28.869C15.5505 27.32 15.46 25.7012 15.46 24.0356C15.46 22.3692 15.5505 20.7498 15.7189 19.2002C16.9764 18.2799 18.3332 17.392 19.7758 16.5591C21.2184 15.7263 22.6655 14.9954 24.0911 14.3667V14.3665ZM24.2096 17.0024L19.1938 20.0977L24.2096 23.1933L29.2254 20.0977L24.2096 17.0023V17.0024ZM13.8258 20.6712C13.747 21.7908 13.7077 22.913 13.708 24.0354C13.708 25.179 13.7483 26.3015 13.8259 27.3976C12.49 26.2942 11.3 25.1617 10.2797 24.0345C11.3 22.9075 12.4899 21.7748 13.8258 20.6712ZM34.3576 20.6721C35.6928 21.7755 36.8825 22.9078 37.9025 24.0346C36.8825 25.1615 35.6928 26.2937 34.3576 27.3969C34.4363 26.2782 34.4756 25.157 34.4753 24.0355C34.4753 22.8914 34.435 21.7686 34.3575 20.6721H34.3576ZM18.0638 21.459V27.5714L23.3316 30.8223V24.7103L18.0638 21.459ZM30.3505 21.4622L25.0839 24.7125V30.8217L30.3506 27.5714V21.4622H30.3505ZM9.13676 25.3847C10.5274 26.9007 12.1838 28.3997 14.0631 29.8247C14.3575 32.1643 14.8278 34.348 15.445 36.3099C15.1141 36.3577 14.7882 36.3987 14.4694 36.4305C12.4722 36.63 10.73 36.5093 9.39082 36.1034C8.05151 35.6974 7.13707 35.0359 6.61179 34.1262C6.0866 33.2163 5.97101 32.0937 6.28901 30.7308C6.60701 29.368 7.37351 27.7991 8.54491 26.1691C8.73639 25.9033 8.93366 25.6418 9.13676 25.3847ZM39.0453 25.385C39.2522 25.6475 39.4503 25.9091 39.6371 26.1691C40.8084 27.799 41.5749 29.3679 41.8929 30.7307C42.2109 32.0936 42.0956 33.2162 41.5704 34.1261C41.045 35.0358 40.1304 35.6973 38.7911 36.1033C37.452 36.5092 35.7101 36.6299 33.7128 36.4305C33.3872 36.3974 33.0622 36.3572 32.7383 36.31C33.3557 34.3476 33.8258 32.1634 34.1202 29.8234C35.9989 28.3988 37.6551 26.9001 39.0453 25.3848L39.0453 25.385ZM32.1371 31.2428C31.8493 32.9515 31.4636 34.5484 30.9977 35.9956C29.5113 35.6757 27.9355 35.2111 26.3117 34.6061C27.3205 34.1147 28.3118 33.5878 29.2835 33.0266C30.2555 32.4657 31.2073 31.8707 32.1373 31.2428H32.1371ZM16.0463 31.2437C16.9758 31.8714 17.9271 32.466 18.8986 33.0266C19.8703 33.5878 20.8616 34.1146 21.8704 34.6061C20.2471 35.211 18.6717 35.6755 17.1855 35.9955C16.7195 34.5485 16.3341 32.952 16.0463 31.2437ZM24.1435 31.3234L24.2073 31.3628L24.2707 31.3234H24.1436H24.1435ZM24.091 35.6141C26.2651 36.5291 28.3917 37.2139 30.3998 37.6603C30.2786 37.9653 30.1506 38.2675 30.016 38.5668C29.1901 40.3962 28.2147 41.8443 27.1934 42.8012C26.1722 43.758 25.1421 44.2197 24.0917 44.2197C23.0411 44.2197 22.0111 43.758 20.9898 42.8012C19.9686 41.8444 18.9933 40.3962 18.1673 38.5667C18.0327 38.2674 17.9047 37.9651 17.7834 37.6602C19.7912 37.2137 21.9176 36.529 24.0912 35.6141H24.091Z" fill="#2B7FFF"/>
</svg>
